<svg xmlns="http://www.w3.org/2000/svg" width="700" height="514" viewBox="0 0 700 514" role="img" aria-label="Profile info card"><style>@keyframes in{from{opacity:0;transform:translateX(-14px)}to{opacity:1;transform:translateX(0)}}.ln{animation:in .42s ease-out both}@media (prefers-reduced-motion:reduce){.ln{animation:none}}</style><g font-family="ui-monospace, SFMono-Regular, Menlo, Consolas, &quot;DejaVu Sans Mono&quot;, monospace" font-size="15"><rect width="700" height="514" rx="10" fill="#0d1117"/><path d="M0 10a10 10 0 0 1 10-10h680a10 10 0 0 1 10 10v28H0z" fill="#161b22"/><line x1="0" y1="38" x2="700" y2="38" stroke="#21262d"/><circle cx="24" cy="19.0" r="6" fill="#ff5f56"/><circle cx="46" cy="19.0" r="6" fill="#ffbd2e"/><circle cx="68" cy="19.0" r="6" fill="#27c93f"/><text x="350.0" y="24.0" text-anchor="middle" font-size="13" fill="#8b949e">LoCo@Loco81: ~ — neofetch</text><text class="ln" style="animation-delay:0.15s" x="30" y="80.0" fill="#39d353" font-weight="700">LoCo@Loco81</text><text class="ln" style="animation-delay:0.24s" x="30" y="112.0" fill="#8b949e">-----------</text><text class="ln" style="animation-delay:0.33s" x="30" y="144.0" xml:space="preserve"><tspan fill="#39d353" font-weight="700">Now:        </tspan><tspan fill="#c9d1d9">Working on Comizo project + my soldiery</tspan></text><text class="ln" style="animation-delay:0.42s" x="30" y="176.0" xml:space="preserve"><tspan fill="#39d353" font-weight="700">            </tspan><tspan fill="#8b949e">project</tspan></text><text class="ln" style="animation-delay:0.51s" x="30" y="208.0" xml:space="preserve"><tspan fill="#39d353" font-weight="700">Prev:       </tspan><tspan fill="#c9d1d9">Front-end work, UI design, small product</tspan></text><text class="ln" style="animation-delay:0.60s" x="30" y="240.0" xml:space="preserve"><tspan fill="#39d353" font-weight="700">            </tspan><tspan fill="#8b949e">builds</tspan></text><text class="ln" style="animation-delay:0.69s" x="30" y="272.0" xml:space="preserve"><tspan fill="#39d353" font-weight="700">Stack:      </tspan><tspan fill="#c9d1d9">Flutter · Python · JavaScript · Html · Css</tspan></text><text class="ln" style="animation-delay:0.78s" x="30" y="304.0" xml:space="preserve"><tspan fill="#39d353" font-weight="700">Highlights: </tspan><tspan fill="#c9d1d9">Design-to-code handoff, smart contracts,</tspan></text><text class="ln" style="animation-delay:0.87s" x="30" y="336.0" xml:space="preserve"><tspan fill="#39d353" font-weight="700">            </tspan><tspan fill="#8b949e">Cross-Platform apps</tspan></text><text class="ln" style="animation-delay:0.96s" x="30" y="368.0" xml:space="preserve"><tspan fill="#39d353" font-weight="700">Learning:   </tspan><tspan fill="#c9d1d9">Everything, but mostly Front-end and UI</tspan></text><text class="ln" style="animation-delay:1.05s" x="30" y="400.0" xml:space="preserve"><tspan fill="#39d353" font-weight="700">Reach:      </tspan><tspan fill="#c9d1d9">Loco81.ir</tspan></text><rect class="ln" style="animation-delay:0.99s" x="30" y="472" width="20" height="20" rx="4" fill="#161b22" stroke="#21262d"/><rect class="ln" style="animation-delay:1.04s" x="56" y="472" width="20" height="20" rx="4" fill="#0e4429" stroke="#21262d"/><rect class="ln" style="animation-delay:1.09s" x="82" y="472" width="20" height="20" rx="4" fill="#006d32" stroke="#21262d"/><rect class="ln" style="animation-delay:1.14s" x="108" y="472" width="20" height="20" rx="4" fill="#26a641" stroke="#21262d"/><rect class="ln" style="animation-delay:1.19s" x="134" y="472" width="20" height="20" rx="4" fill="#39d353" stroke="#21262d"/><rect class="ln" style="animation-delay:1.24s" x="160" y="472" width="20" height="20" rx="4" fill="#69f0a0" stroke="#21262d"/><rect class="ln" style="animation-delay:1.29s" x="186" y="472" width="20" height="20" rx="4" fill="#58a6ff" stroke="#21262d"/><rect class="ln" style="animation-delay:1.34s" x="212" y="472" width="20" height="20" rx="4" fill="#c9d1d9" stroke="#21262d"/><text x="670" y="487" text-anchor="end" font-size="12" fill="#58a6ff">./whoami --verbose</text></g></svg>